<svg xmlns="http://www.w3.org/2000/svg">
  <!--Update the title with your username-->
  <title>@JimmydeKroon</title>

  <!--Add stuff here-->

  <!-- Generator: Adobe Illustrator 17.0.0, SVG Export Plug-In  -->
<svg version="1.1"
	 xmlns="http://www.w3.org/2000/svg" xmlns:xlink="http://www.w3.org/1999/xlink" xmlns:a="http://ns.adobe.com/AdobeSVGViewerExtensions/3.0/"
	 x="0px" y="0px" width="600px" height="600px" viewBox="0 0 600 600" enable-background="new 0 0 600 600" xml:space="preserve">
<defs>
</defs>
<image overflow="visible" width="600" height="600" xlink:href="../../../../../../../../Users/Jimmy/Dropbox/School/FE3/Huiswerk 1/svg-planet-stars.png" >
</image>
</svg>

<!-- Generator: Adobe Illustrator 17.0.0, SVG Export Plug-In  -->
<svg version="1.1"
	 xmlns="http://www.w3.org/2000/svg" xmlns:xlink="http://www.w3.org/1999/xlink" xmlns:a="http://ns.adobe.com/AdobeSVGViewerExtensions/3.0/"
	 x="200px" y="50px" width="216px" height="195.001px" viewBox="0 0 216 195.001" enable-background="new 0 0 216 195.001"
	 xml:space="preserve">
<defs>
</defs>
<g id="Page-1_1_">
	<g id="star-wars-copy_1_" transform="translate(-252.000000, -1251.000000)">
		<g id="darth-vader_1_" transform="translate(252.000000, 1251.000000)">
			<path id="Fill-1_1_" fill="#323232" d="M204,177c1.944-1.506,6.702-2.976,8.496-4.572L180,95.25c0,0-28.854-86.25-64.452-86.25
				h-15.096C64.854,9,36,95.25,36,95.25L3.504,172.428c1.794,1.596,6.552,3.066,8.496,4.572H204z"/>
			<path id="Fill-3_1_" fill="#505050" d="M48,117l24,42l30-42H48z"/>
			<path id="Fill-5_1_" fill="#505050" d="M144,159l24-42h-54L144,159z"/>
			<path id="Fill-7_1_" d="M54,103.5c0-4.122,2.22-10.158,4.932-13.404c0,0,7.602-9.096,23.07-9.096
				c7.842,0,13.314,3.378,13.314,3.378C98.994,86.646,102,91.878,102,96v11.25c0,2.064-3.6,3.75-7.998,3.75H61.998
				C57.6,111,54,107.622,54,103.5"/>
			<path id="Fill-9_1_" d="M154,111h-31.998c-4.404,0-8.004-1.686-8.004-3.75V96c0-4.128,3.012-9.354,6.684-11.622
				c0,0,5.472-3.378,13.32-3.378c15.462,0,23.064,9.096,23.064,9.096c2.712,3.246,4.932,9.282,4.932,13.404
				C161.998,107.628,158.398,111,154,111"/>
			<path id="Fill-11_1_" d="M180,81V67.452c0-34.854-27.678-63.168-62.244-64.338C116.106,1.218,113.706,0,111,0h-6
				c-2.706,0-5.106,1.218-6.756,3.114C63.678,4.284,36,32.598,36,67.452V81L0,177h12l31.668-77.094
				c8.13-20.316,19.392-28.98,37.674-28.98C93.84,70.926,101.574,80.688,102,81h12c0.426-0.312,8.16-10.074,20.658-10.074
				c18.282,0,29.544,8.664,37.662,28.95L204,177h12L180,81z"/>
			<path id="Fill-13_1_" fill="#1A1A1A" d="M53.919,63c-1.548,0-2.808-1.254-2.808-2.808c0-23.202,18.876-42.078,42.084-42.078
				c1.548,0,2.802,1.254,2.802,2.808c0,1.548-1.254,2.802-2.802,2.802c-20.112,0-36.468,16.362-36.468,36.468
				C56.727,61.746,55.467,63,53.919,63"/>
			<path id="Fill-15_1_" fill="#FFFFFF" d="M108,117c-3.312,0-6,2.682-6,6v6h12v-6C114,119.682,111.312,117,108,117 M153,177
				c-3.312,0-6,2.688-6,6s2.688,6,6,6s6-2.688,6-6S156.312,177,153,177 M63,177c-3.312,0-6,2.688-6,6s2.688,6,6,6
				c3.312,0,6-2.688,6-6S66.312,177,63,177"/>
			<path id="Fill-17_1_" d="M158.745,172.531l9.252-55.53l-24,42l-24-33.6v-2.4c0-6.618-5.376-12-12-12c-6.618,0-12,5.382-12,12v2.4
				l-24,33.6l-24-42l9.258,55.53c-3.708,2.046-6.258,5.946-6.258,10.47c0,6.618,5.382,12,12,12c4.428,0,8.25-2.43,10.332-6h69.342
				c2.076,3.57,5.904,6,10.326,6c6.624,0,12-5.382,12-12C164.997,178.477,162.453,174.577,158.745,172.531"/>
			<path id="Fill-20_1_" fill="#323232" d="M84,177h12v-31.542l-12,16.458V177z"/>
			<path id="Fill-22_1_" fill="#323232" d="M120,145.457v31.542h12v-15.084L120,145.457z"/>
			<path id="Fill-24_1_" fill="#323232" d="M102,177h12v-36h-12V177z"/>
			<path id="Fill-26_1_" fill="#FFFFFF" d="M108,117c-3.312,0-6,2.682-6,6v6h12v-6C114,119.682,111.312,117,108,117 M153,177
				c-3.312,0-6,2.688-6,6s2.688,6,6,6s6-2.688,6-6S156.312,177,153,177 M63,177c-3.312,0-6,2.688-6,6s2.688,6,6,6
				c3.312,0,6-2.688,6-6S66.312,177,63,177"/>
		</g>
	</g>
</g>
</svg>

<!-- Generator: Adobe Illustrator 17.0.0, SVG Export Plug-In  -->
<svg version="1.1"
	 xmlns="http://www.w3.org/2000/svg" xmlns:xlink="http://www.w3.org/1999/xlink" xmlns:a="http://ns.adobe.com/AdobeSVGViewerExtensions/3.0/"
	 x="220px" y="235px" width="177.75px" height="161.58px" viewBox="0 0 77.75 61.58" enable-background="new 0 0 77.75 61.58"
	 xml:space="preserve">
<defs>
</defs>
<g id="path8_1_">
	<path fill="#FF0000" d="M26.096,44.917c-0.878,0.689-2.382,0.253-3.355-0.979l0,0c-0.974-1.229-1.052-2.786-0.173-3.476
		L72.559,1.196c0.879-0.69,2.381-0.253,3.355,0.977l0,0c0.975,1.231,1.052,2.788,0.172,3.478L26.096,44.917z"/>
</g>
<g id="Layer_3_1_">
	<path id="path12_1_" fill="#FFEEEE" d="M24.629,43.871c-0.431,0.342-1.059,0.269-1.401-0.164l0,0
		c-0.342-0.432-0.268-1.059,0.164-1.4L72.872,3.26c0.433-0.343,1.063-0.455,1.403-0.022l0,0c0.476,0.446,0.454,1.061,0.021,1.403
		C74.296,4.641,24.629,43.871,24.629,43.871z"/>
</g>
<g id="Layer_11_1_">

		<linearGradient id="path44_2_" gradientUnits="userSpaceOnUse" x1="492.5152" y1="714.5568" x2="496.2691" y2="714.5568" gradientTransform="matrix(0.6202 0.7845 -0.7845 0.6202 256.7498 -771.0597)">
		<stop  offset="0.0604" style="stop-color:#A8AEA4"/>
		<stop  offset="0.1611" style="stop-color:#1E251D"/>
		<stop  offset="0.2819" style="stop-color:#4F564F"/>
		<stop  offset="0.2866" style="stop-color:#474E48"/>
		<stop  offset="0.3085" style="stop-color:#262E2B"/>
		<stop  offset="0.3267" style="stop-color:#111A19"/>
		<stop  offset="0.3389" style="stop-color:#0A1312"/>
		<stop  offset="0.3859" style="stop-color:#0A1312"/>
		<stop  offset="0.4396" style="stop-color:#4A5050"/>
		<stop  offset="0.4966" style="stop-color:#A7A898"/>
		<stop  offset="0.5503" style="stop-color:#636B6B"/>
		<stop  offset="0.6275" style="stop-color:#8F9491"/>
		<stop  offset="0.896" style="stop-color:#4A524F"/>
		<stop  offset="1" style="stop-color:#B3BAB3"/>
	</linearGradient>
	<path id="path44_1_" fill="url(#path44_2_)" d="M3.81,61.526c-0.048,0.037-0.118,0.029-0.156-0.019l-2.19-2.771
		c-0.038-0.048-0.029-0.118,0.018-0.155l0.283-0.223c0.049-0.039,0.118-0.03,0.155,0.017l2.192,2.771
		c0.038,0.049,0.029,0.118-0.019,0.155L3.81,61.526z"/>
</g>
<g id="Layer_6_1_">
	<g id="g47_1_">

			<linearGradient id="path76_2_" gradientUnits="userSpaceOnUse" x1="492.3492" y1="701.7181" x2="496.5746" y2="701.7181" gradientTransform="matrix(0.6202 0.7845 -0.7845 0.6202 256.7498 -771.0597)">
			<stop  offset="0.1611" style="stop-color:#A8AEA4"/>
			<stop  offset="0.2114" style="stop-color:#1E251D"/>
			<stop  offset="0.2819" style="stop-color:#4F564F"/>
			<stop  offset="0.2851" style="stop-color:#555B55"/>
			<stop  offset="0.3218" style="stop-color:#8F958F"/>
			<stop  offset="0.3554" style="stop-color:#BEC2BD"/>
			<stop  offset="0.3851" style="stop-color:#DFE2DE"/>
			<stop  offset="0.4097" style="stop-color:#F4F6F3"/>
			<stop  offset="0.4262" style="stop-color:#FBFDFA"/>
			<stop  offset="0.7349" style="stop-color:#FBFDFA"/>
			<stop  offset="0.7819" style="stop-color:#3C454A"/>
			<stop  offset="0.8456" style="stop-color:#454E53"/>
			<stop  offset="1" style="stop-color:#B3BAB3"/>
		</linearGradient>
		<path id="path76_1_" fill="url(#path76_2_)" d="M6.28,59.737l-0.258,0.411l-1.687,1.351c-0.24,0.189-0.425,0.02-0.615-0.221
			l-1.924-2.434c-0.19-0.239-0.313-0.459-0.072-0.648l1.73-1.387L3.9,56.815l17.581-13.898c0.24-0.188,0.588-0.147,0.779,0.092
			l1.649,2.086c0.189,0.24,0.149,0.59-0.091,0.779L6.28,59.737z"/>
	</g>
</g>
<g id="Layer_10_1_">
	<line id="line79_1_" fill="none" stroke="#454E53" stroke-width="0.0925" x1="2.947" y1="57.218" x2="5.559" y2="60.52"/>
	<line id="line81_1_" fill="none" stroke="#454E53" stroke-width="0.0925" x1="2.773" y1="57.355" x2="5.386" y2="60.66"/>
	<line id="line83_1_" fill="none" stroke="#454E53" stroke-width="0.0925" x1="2.599" y1="57.493" x2="5.212" y2="60.798"/>
	<line id="line85_1_" fill="none" stroke="#454E53" stroke-width="0.0925" x1="2.426" y1="57.631" x2="5.038" y2="60.934"/>
	<line id="line87_1_" fill="none" stroke="#454E53" stroke-width="0.0925" x1="2.251" y1="57.769" x2="4.863" y2="61.072"/>
	<line id="line89_1_" fill="none" stroke="#454E53" stroke-width="0.0925" x1="2.077" y1="57.906" x2="4.689" y2="61.209"/>
</g>
<g id="Layer_4_1_">
	<g id="g228_1_">

			<linearGradient id="path243_2_" gradientUnits="userSpaceOnUse" x1="491.6705" y1="688.8899" x2="496.9154" y2="688.8899" gradientTransform="matrix(0.6202 0.7845 -0.7845 0.6202 256.7498 -771.0597)">
			<stop  offset="0" style="stop-color:#1E251D"/>
			<stop  offset="0.3054" style="stop-color:#0A1312"/>
			<stop  offset="0.5537" style="stop-color:#262624"/>
			<stop  offset="0.7886" style="stop-color:#101616"/>
			<stop  offset="0.8758" style="stop-color:#232927"/>
			<stop  offset="0.9832" style="stop-color:#0A1312"/>
		</linearGradient>
		<path id="path243_1_" fill="url(#path243_2_)" d="M21.197,42.859l3.071-2.193c0,0,0.319-0.253,0.617,0.124
			c0.297,0.378,0.977,3.797-0.022,4.68l-1.217,0.964l0.086,0.167l-1.265,0.952c0,0,0.031-0.471-0.266-0.848
			c-0.298-0.379-0.507-0.896-0.507-0.896s-0.338-0.485-0.742-0.165c-0.406,0.32-0.659,0.001-0.842-0.229
			c-0.183-0.232-0.586-0.386-0.799-0.356c-0.215,0.027-0.722-1.031-0.722-1.031l1.773-1.449
			C20.362,42.579,21.197,42.859,21.197,42.859z"/>
	</g>
</g>
<g id="Layer_19_1_">

		<ellipse id="ellipse246_1_" transform="matrix(-0.6206 -0.7841 0.7841 -0.6206 1.8149 85.4984)" fill="#252E2D" cx="21.591" cy="42.31" rx="0.462" ry="0.757"/>
</g>
<g id="Layer_16_1_">
	<path id="path249_1_" fill="#8C917D" stroke="#A7A898" stroke-width="0.1851" d="M19.429,43.868c-0.212,0.168-0.466,0.2-0.568,0.07
		c-0.101-0.126-0.011-0.366,0.201-0.535c0.211-0.167,0.466-0.198,0.567-0.07C19.731,43.46,19.642,43.699,19.429,43.868z"/>
</g>
<g id="Layer_5_1_">
	<g id="g252_1_">
		<g id="g254_1_">

				<linearGradient id="path263_2_" gradientUnits="userSpaceOnUse" x1="492.1302" y1="688.2983" x2="492.1302" y2="689.337" gradientTransform="matrix(0.6202 0.7845 -0.7845 0.6202 256.7498 -771.0597)">
				<stop  offset="0" style="stop-color:#666666"/>
				<stop  offset="0.5" style="stop-color:#D6D6D6"/>
				<stop  offset="1" style="stop-color:#696969"/>
			</linearGradient>
			<path id="path263_1_" fill="url(#path263_2_)" d="M21.789,42.498c-0.23,0.182-0.509,0.212-0.623,0.067
				c-0.034-0.044-0.213-0.272-0.213-0.272l0.839-0.646c0,0,0.158,0.2,0.206,0.26C22.112,42.051,22.019,42.314,21.789,42.498z"/>
		</g>
		<g id="g265_1_">
			<path id="path267_1_" fill="#9C9C9C" d="M21.183,42.372c-0.091,0.001-0.162-0.027-0.205-0.08
				c-0.106-0.135-0.013-0.386,0.206-0.559c0.122-0.096,0.261-0.153,0.384-0.155c0.091-0.001,0.162,0.027,0.206,0.082
				c0.105,0.134,0.013,0.383-0.207,0.558C21.446,42.313,21.307,42.37,21.183,42.372C21.183,42.372,21.183,42.372,21.183,42.372z"/>
			<path id="path269_1_" fill="#666666" d="M21.568,41.556c0.094-0.001,0.175,0.026,0.225,0.09c0.114,0.143,0.02,0.406-0.21,0.589
				c-0.13,0.104-0.275,0.156-0.399,0.159c-0.094,0.001-0.175-0.028-0.225-0.091c-0.112-0.144-0.019-0.407,0.211-0.59
				C21.3,41.612,21.445,41.557,21.568,41.556 M21.569,41.6c-0.118,0.002-0.252,0.058-0.37,0.149c-0.105,0.083-0.182,0.187-0.22,0.29
				c-0.034,0.095-0.027,0.178,0.018,0.236c0.048,0.062,0.128,0.072,0.186,0.071c0.119-0.002,0.253-0.054,0.371-0.148
				c0.104-0.082,0.183-0.186,0.22-0.288c0.034-0.096,0.028-0.181-0.017-0.236C21.708,41.612,21.627,41.599,21.569,41.6L21.569,41.6z
				"/>
		</g>
	</g>
</g>
<g id="Layer_17_1_">
	<path id="path272_1_" fill="#61635C" stroke="#3B413D" stroke-width="0.1851" d="M22.027,41.867
		c0.061,0.034,0.443-0.268,0.573-0.098c0.154,0.201-0.036,0.665-0.4,0.951c-0.363,0.289-0.616,0.15-0.619,0.279
		c-0.005,0.189,0.573,0.038,0.743-0.096c0.377-0.292,0.902-1.002,0.603-1.357c-0.299-0.354-0.926-0.011-0.975,0.118
		C21.903,41.791,21.962,41.834,22.027,41.867z"/>
</g>
<g id="path284_1_">
	<path fill="#00C9FF" d="M56.372,40.473c0.917,0.706,0.858,2.321-0.133,3.606l0,0c-0.99,1.285-2.535,1.757-3.452,1.05L0.65,4.985
		c-0.916-0.707-0.857-2.32,0.133-3.607l0,0c0.99-1.286,2.536-1.755,3.453-1.05L56.372,40.473z"/>
</g>
<path id="path286_1_" fill="#EEFBFF" d="M54.902,41.715c0.443,0.341,0.525,0.977,0.185,1.419l0,0
	c-0.342,0.442-0.977,0.526-1.419,0.185L2.25,3.793c-0.443-0.342-0.525-0.977-0.184-1.42l0,0c0.34-0.443,0.976-0.525,1.419-0.185
	L54.902,41.715z"/>
<linearGradient id="polygon306_2_" gradientUnits="userSpaceOnUse" x1="-391.7145" y1="1410.9297" x2="-388.7148" y2="1410.9297" gradientTransform="matrix(0.6101 -0.7923 0.7923 0.6101 -823.7245 -1126.3914)">
	<stop  offset="0" style="stop-color:#3B413D"/>
	<stop  offset="0.1544" style="stop-color:#0A1312"/>
	<stop  offset="0.4228" style="stop-color:#0A1312"/>
	<stop  offset="0.4933" style="stop-color:#4A5050"/>
	<stop  offset="0.6376" style="stop-color:#494F4F"/>
	<stop  offset="0.7081" style="stop-color:#232927"/>
	<stop  offset="0.8591" style="stop-color:#0D1311"/>
	<stop  offset="1" style="stop-color:#2D332F"/>
</linearGradient>
<polygon id="polygon306_1_" fill="url(#polygon306_2_)" points="55.713,45.19 54.628,44.355 56.457,41.978 57.542,42.813 "/>
<linearGradient id="polygon338_2_" gradientUnits="userSpaceOnUse" x1="-391.8315" y1="1409.4354" x2="-388.8404" y2="1409.4354" gradientTransform="matrix(0.6101 -0.7923 0.7923 0.6101 -823.7245 -1126.3914)">
	<stop  offset="0.0973" style="stop-color:#A8AEAB"/>
	<stop  offset="0.1544" style="stop-color:#1E2524"/>
	<stop  offset="0.2819" style="stop-color:#4F5654"/>
	<stop  offset="0.2851" style="stop-color:#555B59"/>
	<stop  offset="0.3218" style="stop-color:#8F9592"/>
	<stop  offset="0.3554" style="stop-color:#BEC2BF"/>
	<stop  offset="0.3851" style="stop-color:#DFE2DF"/>
	<stop  offset="0.4097" style="stop-color:#F4F6F3"/>
	<stop  offset="0.4262" style="stop-color:#FBFDFA"/>
	<stop  offset="0.6342" style="stop-color:#FBFDFA"/>
	<stop  offset="0.7047" style="stop-color:#000000"/>
	<stop  offset="0.8121" style="stop-color:#454E53"/>
	<stop  offset="0.8691" style="stop-color:#000000"/>
	<stop  offset="0.9094" style="stop-color:#A3A39C"/>
</linearGradient>
<polygon id="polygon338_1_" fill="url(#polygon338_2_)" points="54.469,44.379 53.361,43.527 55.187,41.158 56.293,42.01 "/>
<linearGradient id="polygon369_2_" gradientUnits="userSpaceOnUse" x1="-391.8378" y1="1408.5818" x2="-388.612" y2="1408.5818" gradientTransform="matrix(0.6101 -0.7923 0.7923 0.6101 -823.7245 -1126.3914)">
	<stop  offset="0.0973" style="stop-color:#A8AEAB"/>
	<stop  offset="0.1544" style="stop-color:#1E2524"/>
	<stop  offset="0.2819" style="stop-color:#4F5654"/>
	<stop  offset="0.2851" style="stop-color:#555B59"/>
	<stop  offset="0.3218" style="stop-color:#8F9592"/>
	<stop  offset="0.3554" style="stop-color:#BEC2BF"/>
	<stop  offset="0.3851" style="stop-color:#DFE2DF"/>
	<stop  offset="0.4097" style="stop-color:#F4F6F3"/>
	<stop  offset="0.4262" style="stop-color:#FBFDFA"/>
	<stop  offset="0.6342" style="stop-color:#FBFDFA"/>
	<stop  offset="0.7047" style="stop-color:#000000"/>
	<stop  offset="0.8121" style="stop-color:#454E53"/>
	<stop  offset="0.8691" style="stop-color:#000000"/>
	<stop  offset="0.9094" style="stop-color:#A3A39C"/>
</linearGradient>
<polygon id="polygon369_1_" fill="url(#polygon369_2_)" points="53.366,43.537 53.104,43.337 55.073,40.782 55.331,40.983 "/>
<linearGradient id="polygon400_2_" gradientUnits="userSpaceOnUse" x1="-391.8365" y1="1410.2501" x2="-388.6118" y2="1410.2501" gradientTransform="matrix(0.6101 -0.7923 0.7923 0.6101 -823.7245 -1126.3914)">
	<stop  offset="0.0973" style="stop-color:#A8AEAB"/>
	<stop  offset="0.1544" style="stop-color:#1E2524"/>
	<stop  offset="0.2819" style="stop-color:#4F5654"/>
	<stop  offset="0.2851" style="stop-color:#555B59"/>
	<stop  offset="0.3218" style="stop-color:#8F9592"/>
	<stop  offset="0.3554" style="stop-color:#BEC2BF"/>
	<stop  offset="0.3851" style="stop-color:#DFE2DF"/>
	<stop  offset="0.4097" style="stop-color:#F4F6F3"/>
	<stop  offset="0.4262" style="stop-color:#FBFDFA"/>
	<stop  offset="0.6342" style="stop-color:#FBFDFA"/>
	<stop  offset="0.7047" style="stop-color:#000000"/>
	<stop  offset="0.8121" style="stop-color:#454E53"/>
	<stop  offset="0.8691" style="stop-color:#000000"/>
	<stop  offset="0.9094" style="stop-color:#A3A39C"/>
</linearGradient>
<polygon id="polygon400_1_" fill="url(#polygon400_2_)" points="54.657,44.531 54.458,44.378 56.424,41.822 56.625,41.977 "/>
<linearGradient id="path434_2_" gradientUnits="userSpaceOnUse" x1="-392.3228" y1="1436.725" x2="-388.5104" y2="1436.725" gradientTransform="matrix(0.6101 -0.7923 0.7923 0.6101 -823.7245 -1126.3914)">
	<stop  offset="0.0604" style="stop-color:#A8AEA4"/>
	<stop  offset="0.1611" style="stop-color:#1E2521"/>
	<stop  offset="0.2819" style="stop-color:#4F5654"/>
	<stop  offset="0.2866" style="stop-color:#474E4C"/>
	<stop  offset="0.3085" style="stop-color:#262E2D"/>
	<stop  offset="0.3267" style="stop-color:#111A19"/>
	<stop  offset="0.3389" style="stop-color:#0A1312"/>
	<stop  offset="0.3859" style="stop-color:#0A1312"/>
	<stop  offset="0.4161" style="stop-color:#4A5050"/>
	<stop  offset="0.4564" style="stop-color:#FFFFFF"/>
	<stop  offset="0.5201" style="stop-color:#FFFFFF"/>
	<stop  offset="0.557" style="stop-color:#4A5050"/>
	<stop  offset="0.6678" style="stop-color:#101616"/>
	<stop  offset="0.755" style="stop-color:#4A5259"/>
	<stop  offset="0.8322" style="stop-color:#101616"/>
</linearGradient>
<path id="path434_1_" fill="url(#path434_2_)" d="M77.705,58.087c0.05,0.037,0.06,0.106,0.021,0.157c0,0,0.144,0.251-0.898,1.604
	c-0.909,1.181-1.29,1.235-1.29,1.235c-0.037,0.049-0.105,0.059-0.156,0.021l-0.501-0.388c-0.05-0.037-0.06-0.108-0.02-0.158
	l2.186-2.84c0.039-0.049,0.108-0.057,0.159-0.021L77.705,58.087z"/>
<path id="path436_1_" opacity="0.4" enable-background="new    " d="M77.154,57.419c0.246,0.188,0.594,0.336,0.392,0.598
	l-2.039,2.646c-0.201,0.262-0.482,0.366-0.729,0.177l-4.337-3.321l-0.095-0.453l-18.372-14.15c-0.246-0.189,1.172-0.707,1.833-0.768
	l0.988,0.715c0.459,0.154,1.315,0.182,1.877,0.05c0.77-0.183,0.891-0.604,1.202-0.363L77.154,57.419z"/>
<linearGradient id="path470_2_" gradientUnits="userSpaceOnUse" x1="-392.6097" y1="1421.9087" x2="-388.0589" y2="1421.9087" gradientTransform="matrix(0.6101 -0.7923 0.7923 0.6101 -823.7245 -1126.3914)">
	<stop  offset="0.0973" style="stop-color:#A8AEAB"/>
	<stop  offset="0.1544" style="stop-color:#1E2524"/>
	<stop  offset="0.2819" style="stop-color:#4F5654"/>
	<stop  offset="0.2851" style="stop-color:#555B59"/>
	<stop  offset="0.3218" style="stop-color:#8F9592"/>
	<stop  offset="0.3554" style="stop-color:#BEC2BF"/>
	<stop  offset="0.3851" style="stop-color:#DFE2DF"/>
	<stop  offset="0.4097" style="stop-color:#F4F6F3"/>
	<stop  offset="0.4262" style="stop-color:#FBFDFA"/>
	<stop  offset="0.6342" style="stop-color:#FBFDFA"/>
	<stop  offset="0.7047" style="stop-color:#000000"/>
	<stop  offset="0.8121" style="stop-color:#454E53"/>
	<stop  offset="0.8691" style="stop-color:#000000"/>
	<stop  offset="0.9094" style="stop-color:#A3A39C"/>
</linearGradient>
<path id="path470_1_" fill="url(#path470_2_)" d="M72.711,53.904l0.474,0.146l4.291,3.285c0.246,0.188,0.116,0.427-0.085,0.688
	l-2.039,2.647c-0.2,0.261-0.396,0.448-0.643,0.258l-4.336-3.319l-0.094-0.455L51.906,43.006c-0.247-0.188,1.171-0.708,1.831-0.768
	l0.988,0.714c0.46,0.153,1.316,0.184,1.879,0.05c0.77-0.182,1.025-0.841,1.338-0.602C57.942,42.4,72.711,53.904,72.711,53.904z"/>
<linearGradient id="path654_2_" gradientUnits="userSpaceOnUse" x1="-388.3777" y1="1413.2063" x2="-388.3777" y2="1415.1188" gradientTransform="matrix(0.6101 -0.7923 0.7923 0.6101 -823.7245 -1126.3914)">
	<stop  offset="0" style="stop-color:#1E2524"/>
	<stop  offset="0.2819" style="stop-color:#4F5654"/>
	<stop  offset="0.2851" style="stop-color:#555B59"/>
	<stop  offset="0.3218" style="stop-color:#8F9592"/>
	<stop  offset="0.3554" style="stop-color:#BEC2BF"/>
	<stop  offset="0.3851" style="stop-color:#DFE2DF"/>
	<stop  offset="0.4097" style="stop-color:#F4F6F3"/>
	<stop  offset="0.4262" style="stop-color:#FBFDFA"/>
	<stop  offset="0.6342" style="stop-color:#FBFDFA"/>
	<stop  offset="0.7047" style="stop-color:#000000"/>
</linearGradient>
<path id="path654_1_" fill="url(#path654_2_)" d="M59.036,43.267c0,0,0.057,0.588,0.503,0.929c0.444,0.345,1.116,0.411,1.116,0.411
	S59.036,43.267,59.036,43.267z"/>
<path id="path657_1_" fill="#C93233" stroke="#5C1C0D" stroke-width="0.1851" d="M60.322,43.903c0.11,0.083,0.145,0.226,0.075,0.317
	l0,0c-0.07,0.09-0.217,0.095-0.328,0.008l-0.6-0.463c-0.11-0.084-0.144-0.228-0.075-0.316l0,0c0.069-0.091,0.216-0.096,0.326-0.01
	C59.72,43.439,60.322,43.903,60.322,43.903z"/>
<path id="path663_1_" fill="#101518" d="M57.94,43.333c0.288,0.223,0.356,0.622,0.148,0.89c-0.206,0.269-0.609,0.306-0.896,0.084
	c-0.29-0.224-0.356-0.621-0.15-0.89C57.249,43.148,57.651,43.111,57.94,43.333z"/>
<radialGradient id="circle671_2_" cx="-389.5002" cy="1412.012" r="0.2099" gradientTransform="matrix(0.6101 -0.7923 0.7923 0.6101 -823.7245 -1126.3914)" gradientUnits="userSpaceOnUse">
	<stop  offset="0" style="stop-color:#B3BAB3"/>
	<stop  offset="1" style="stop-color:#262626"/>
</radialGradient>
<circle id="circle671_1_" fill="url(#circle671_2_)" cx="57.38" cy="43.677" r="0.211"/>
<radialGradient id="circle678_2_" cx="-389.5383" cy="1412.509" r="0.1641" gradientTransform="matrix(0.6101 -0.7923 0.7923 0.6101 -823.7245 -1126.3914)" gradientUnits="userSpaceOnUse">
	<stop  offset="0" style="stop-color:#B3BAB3"/>
	<stop  offset="1" style="stop-color:#262626"/>
</radialGradient>
<circle id="circle678_1_" fill="url(#circle678_2_)" cx="57.751" cy="44.009" r="0.164"/>
</svg>

<svg width="500" height="700" viewBox="0 0 500 700" >

  <g stroke="red" stroke-width="2">
    <circle
      cx="140"
      cy="500"
      r="50"
      fill="#000000"
    />

    <line
      x1="190"
      y1="500"
      x2="220"
      y2="500"
      stroke-width="2"
      stroke="red"
    />

    <rect
      x="220"
      y="450"
      width="90"
      height="90"
      fill="#202020"
    />

    <line
      x1="310"
      y1="500"
      x2="340"
      y2="500"
      stroke-width="2"
      stroke="red"
    />

    <polygon
      points="340,450 340,540 400,500"
      fill="#404040"
    />

    <line
      x1="399"
      y1="500"
      x2="430"
      y2="500"
      stroke-width="2"
      stroke="red"
    />

    <path
      d="M455 450 L500 540 L410 540 Z"
      fill="#606060"
    />
  </g>

    <text x="200" y="425" fill="red" opacity="0.8" font-family="sans-serif" font-size="28px">@JimmydeKroon</text>
</svg>

</svg>
