<svg xmlns="http://www.w3.org/2000/svg" version="1.1" width="1000" height="600" viewBox="0 0 800 600">
  <!--Update the title with your handle-->
  <title>@auremoser</title>
    
  <!-- some euler-ish circle stuff -->
  <g id="pupil" stroke="0" stroke-width="0">
    <circle fill="#66c2a5" cx="370.9" cy="309.4" r="140.5"/>
      <g id="dashed">
        <circle fill="none" stroke="#abdda4" stroke-width="5" stroke-miterlimit="10" stroke-dasharray="12" cx="370.9" cy="309.4" r="138"/>
        <circle fill="none" stroke="#abdda4" stroke-width="5" stroke-miterlimit="10" stroke-dasharray="12" cx="370.9" cy="304.4" r="118"/>
      </g>

    <!-- add some cataracts -->
    <circle fill="#5e4fa2" cx="370.9" cy="309.4" r="92.9"/>
    <circle fill="#d53e4f" cx="322.6" cy="295.8" r="53.6"/>
    <circle fill="#ccebc5" cx="308.5" cy="272.7" r="22.8"/>
    <circle fill="#decbe4" cx="398.7" cy="248.6" r="13.9"/>
    <circle fill="#fbb4ae" cx="139.1" cy="205.3" r="13.9"/>
    <circle fill="#fed9a6" cx="425.1" cy="252.2" r="12.7"/>
    <circle fill="#9e0142" cx="459.9" cy="297.2" r="1.7"/>
    <circle fill="#d53e4f" cx="459.9" cy="297.2" r="15.7"/>
    <circle fill="#f46d43" cx="505.1" cy="327.2" r="1.5"/>
    <circle fill="#fdae61" cx="341.9" cy="373.8" r="22.6"/>
    <circle fill="#fee08b" cx="412.3" cy="383.1" r="33"/>
    <circle fill="#e6f598" cx="385" cy="338.7" r="15.5"/>
    <circle fill="#abdda4" cx="310.6" cy="315.2" r="35.2"/>
    <circle fill="#66c2a5" cx="329.8" cy="363.5" r="20.8"/>
    <circle fill="#3288bd" cx="295" cy="398.7" r="19.9"/>
    <circle fill="#5e4fa2" cx="361.9" cy="379.4" r="1.9"/>
  </g>

  <!-- euler quote -->
  <text x="0" y="75" font-family="monospace" font-size="15" fill="#9e0142">Now I will have less distraction.</text>
  <!-- fake shapes -->
  <rect x="0" y="0" width="100%" height="100%" fill="#ffffff" opacity="0.0"/>
  <polygon fill="#9e0142" points="10.0 12.1 17.1 13.7 110.4 109.5 "/>
  <!-- strikethrough -->
  <line fill="none" stroke="#9e0142" stroke-width="1.5" stroke-linecap="round" stroke-linejoin="round" x1="180.9" y1="70.2" x2="145.1" y2="70.2"/>
  <!-- eyeball  -->
  <g id="iris">
    <path fill="#9e0142" d="M285.1 501.7c-33.9-15-63.4-38-86.2-66.7l0 0c-14.2-17.9-25.7-38-34-59.8l0 0c-0.5-1.3 0.2-2.8 1.5-3.3l0 0c1.3-0.5 2.8 0.2 3.3 1.5l0 0c8.1 21.2 19.4 40.9 33.3 58.4l0 0c22.2 28 51.1 50.6 84.2 65.2l0 0c27.3 12.1 57.5 18.8 89.3 18.8l0 0c24.4 0 48-4 69.9-11.3l0 0c36.3-12.1 68.5-33.4 93.7-61.1l0 0c28.4-31.2 48-70.5 54.9-114.1l0 0c1.8-11.3 2.7-23 2.7-34.8l0 0c0-1.4 1.1-2.5 2.5-2.5l0 0c1.4 0 2.5 1.1 2.5 2.5l0 0c0 12.1-1 24-2.8 35.6l0 0c-7 44.6-27.1 84.8-56.2 116.7l0 0c-25.8 28.3-58.7 50.1-95.9 62.5l0 0c-22.5 7.5-46.5 11.5-71.5 11.5l0 0C344 520.9 313 514 285.1 501.7L285.1 501.7z"/>
    <path fill="#d53e4f" d="M433.5 80.7c-18.2-4.8-37.3-7.4-57.1-7.4l0 0c-1.4 0-2.5-1.1-2.5-2.5l0 0c0-1.4 1.1-2.5 2.5-2.5l0 0c20.2 0 39.7 2.6 58.4 7.6l0 0c1.4 0.4 2.2 1.7 1.8 3.1l0 0c-0.3 1.1-1.3 1.9-2.4 1.9l0 0C434 80.8 433.7 80.8 433.5 80.7L433.5 80.7z"/>
    <path fill="#f46d43" d="M150.1 294.6c0-18.1 2.1-35.8 6.2-52.7l0 0c0.3-1.4 1.7-2.2 3.1-1.9l0 0c1.4 0.3 2.2 1.7 1.9 3.1l0 0c-3.9 16.5-6 33.8-6 51.5l0 0c0 1.4-1.1 2.5-2.5 2.5l0 0C151.3 297.1 150.1 296 150.1 294.6L150.1 294.6z"/>
    <path fill="#fdae61" d="M373.9 511.3c0-1.4 1.1-2.5 2.5-2.5l0 0c39 0 75.6-10.4 107.1-28.7l0 0 0 0c1.2-0.7 2.8-0.3 3.5 0.9l0 0c0.7 1.2 0.3 2.8-0.9 3.5l0 0c-32.3 18.7-69.7 29.3-109.7 29.3l0 0C375.1 513.8 373.9 512.7 373.9 511.3L373.9 511.3z"/>
    <path fill="#fee08b" d="M590.7 294.6c0-18.4-2.3-36.3-6.7-53.4l0 0c-0.4-1.4 0.5-2.7 1.8-3.1l0 0c1.4-0.3 2.7 0.5 3.1 1.8l0 0c4.5 17.5 6.9 35.8 6.9 54.6l0 0c0 1.4-1.1 2.5-2.5 2.5l0 0C591.8 297.1 590.7 296 590.7 294.6L590.7 294.6z"/>
    <path fill="#e6f598" d="M313.9 86.9c-0.4-1.3 0.4-2.8 1.7-3.1l0 0c19.3-5.6 39.7-8.5 60.8-8.5l0 0c1.4 0 2.5 1.1 2.5 2.5l0 0c0 1.4-1.1 2.5-2.5 2.5l0 0c-20.6 0-40.5 2.9-59.4 8.3l0 0c-0.2 0.1-0.5 0.1-0.7 0.1l0 0C315.3 88.8 314.3 88.1 313.9 86.9L313.9 86.9z"/>
    <path fill="#abdda4" d="M208.5 435.6c-27.5-32.7-45.6-73.7-50.2-118.6l0 0c-0.7-7.4-1.1-14.8-1.1-22.4l0 0c0-1.4 1.1-2.5 2.5-2.5l0 0c1.4 0 2.5 1.1 2.5 2.5l0 0c0 7.4 0.4 14.7 1.1 21.9l0 0c4.5 43.9 22.2 83.8 49 115.8l0 0 0 0c0.9 1.1 0.8 2.7-0.3 3.6l0 0c-0.5 0.4-1.1 0.6-1.6 0.6l0 0C209.7 436.5 209 436.2 208.5 435.6L208.5 435.6z"/>
    <path fill="#66c2a5" d="M164.2 294.6c0-28.6 5.6-55.8 15.9-80.7l0 0c15.2-36.9 40.4-68.5 72.4-91.6l0 0c34.9-25.1 77.7-40 124-40l0 0c1.4 0 2.5 1.1 2.5 2.5l0 0c0 1.4-1.1 2.5-2.5 2.5l0 0c-45.2 0-87 14.5-121 39l0 0c-31.2 22.5-55.8 53.4-70.6 89.4l0 0c-10 24.3-15.5 50.9-15.5 78.8l0 0 0 0c0 1.4-1.1 2.5-2.5 2.5l0 0C165.4 297.1 164.2 296 164.2 294.6L164.2 294.6z"/>
    <path fill="#3288bd" d="M275.1 481c-1.2-0.7-1.7-2.2-1-3.4l0 0c0.7-1.2 2.2-1.7 3.4-1l0 0c29.4 16 63.1 25.1 99 25.1l0 0c1.4 0 2.5 1.1 2.5 2.5l0 0c0 1.4-1.1 2.5-2.5 2.5l0 0C339.7 506.8 305.2 497.5 275.1 481L275.1 481z"/>
    <path fill="#5e4fa2" d="M535.4 431.4c-1.1-0.9-1.2-2.5-0.3-3.6l0 0c22.8-27.1 38.8-60.2 45.3-96.5l0 0c0.2-1.4 1.6-2.3 2.9-2l0 0c1.4 0.2 2.3 1.6 2 2.9l0 0c-6.7 37.2-23 71.1-46.4 98.9l0 0c-0.5 0.6-1.2 0.9-1.9 0.9l0 0C536.5 432 535.9 431.8 535.4 431.4L535.4 431.4z"/>
    <path fill="abdda4" d="M573.8 231.3c-10.2-31.8-27.8-60.2-50.8-83.3l0 0v0c-1-1-1-2.6 0-3.6l0 0c1-1 2.6-1 3.6 0l0 0c23.6 23.6 41.7 52.7 52.1 85.3l0 0c0.4 1.3-0.3 2.8-1.6 3.2l0 0c-0.3 0.1-0.5 0.1-0.8 0.1l0 0C575.1 233.1 574.1 232.4 573.8 231.3L573.8 231.3z"/>
    <path fill="#9e0142" d="M172.1 313.1c-0.5-6.1-0.8-12.3-0.8-18.5l0 0c0-1.4 1.1-2.5 2.5-2.5l0 0c1.4 0 2.5 1.1 2.5 2.5l0 0c0 6.1 0.3 12.1 0.8 18.1l0 0c0.1 1.4-0.9 2.6-2.3 2.7l0 0c-0.1 0-0.2 0-0.2 0l0 0C173.3 315.4 172.2 314.4 172.1 313.1L172.1 313.1z"/>
    <path fill="#f46d43" d="M306.7 487.6c-1.3-0.5-2-1.9-1.5-3.2l0 0c0.5-1.3 1.9-2 3.2-1.5l0 0c21.2 7.7 44.2 11.9 68.1 11.9l0 0 0 0c1.4 0 2.5 1.1 2.5 2.5l0 0c0 1.4-1.1 2.5-2.5 2.5l0 0C352 499.7 328.5 495.4 306.7 487.6L306.7 487.6z"/>
    <path fill="#d53e4f" d="M539.5 414.9c-1.1-0.8-1.4-2.4-0.6-3.5l0 0c23.7-32.9 37.6-73.2 37.6-116.8l0 0c0-1.4 1.1-2.5 2.5-2.5l0 0c1.4 0 2.5 1.1 2.5 2.5l0 0c0 44.7-14.3 86.1-38.6 119.8l0 0c-0.5 0.7-1.3 1.1-2.1 1.1l0 0C540.5 415.4 540 415.3 539.5 414.9L539.5 414.9z"/>
    <path fill="#ffffbf" d="M500.4 137.4c-34.1-26.9-77.1-43-123.9-43l0 0c-18.4 0-36.2 2.5-53.1 7.1l0 0c-1.4 0.4-2.7-0.4-3.1-1.8l0 0c-0.4-1.3 0.4-2.7 1.8-3.1l0 0c17.4-4.8 35.6-7.3 54.5-7.3l0 0c48 0 92.1 16.5 127.1 44.1l0 0c1.1 0.9 1.3 2.5 0.4 3.6l0 0c-0.5 0.6-1.2 1-2 1l0 0C501.4 138 500.9 137.8 500.4 137.4L500.4 137.4z"/>
    <path fill="#abdda4" d="M569.5 294.6c0-35.8-9.8-69.4-26.8-98.1l0 0 0 0c-0.7-1.2-0.3-2.8 0.9-3.5l0 0c1.2-0.7 2.8-0.3 3.5 0.9l0 0c17.4 29.5 27.5 63.9 27.5 100.7l0 0c0 1.4-1.1 2.5-2.5 2.5l0 0C570.6 297.1 569.5 296 569.5 294.6L569.5 294.6z"/>
    <path fill="#5e4fa2" d="M198.9 212.4c-1.3-0.6-1.8-2.1-1.2-3.4l0 0c31.9-66.6 100-112.5 178.7-112.5l0 0c1.4 0 2.5 1.1 2.5 2.5l0 0c0 1.4-1.1 2.5-2.5 2.5l0 0c-76.8 0-143 44.8-174.2 109.7l0 0h0c-0.4 0.9-1.3 1.4-2.3 1.4l0 0C199.6 212.6 199.3 212.5 198.9 212.4L198.9 212.4z"/>
  </g>

  <!-- Who reads these comments?...guess what nobody. -->
  <!-- Euler did a lot with set theory and with circular diagrams, and some stuff with pi -->
  <!-- After losing sight in his right eye, he said <q> "now i will have less distraction" </q> in a biography called Mathematical **Circles** -->
  <!-- Lots of circles...now, less distraction -->
</svg>