<svg xmlns="http://www.w3.org/2000/svg" viewBox="0 0 1440 1024" xmlns:xlink="http://www.w3.org/1999/xlink">
	<!-- Optimized with the awesome, non-replacable SVGOMG https://jakearchibald.github.io/svgomg/, seriously: use it every time you work with SVG -->
	<title>@danoszz</title>
	<!-- Initial minimum attributes, cheated and filled with nothing-->
	<circle fill="transparent" cx="150" cy="150" r="100"/>
	<rect fill="transparent" x="50" y="50" width="150" height="150"/>
	<line fill="transparent" x1="50" y1="1000" x2="50" y2="10" stroke-width="10" stroke="red"/>
	<polygon fill="transparent" opacity="0.75" points="60,20 100,40 100,80 60,100 20,80 20,40"/>
	<path
		fill="transparent"
		fill-rule="evenodd"
		clip-rule="evenodd"
		d="M408,139c0.865,8.866-2.11,13.89-2,22c-12.986,5.65-13.854,27.793-19,44
		c-3.709,11.681-8.093,25.311-18,31c-31.345,18.001-82.645,10.605-102-13c-4.796-5.849-10.889-17.066-15-26
		c-6.342-13.78-7.012-34.316-25-27c-5.995,2.438-12.297,23.784-17,33c-5.28,10.346-12.995,23.529-20,29
		c-20.759,16.211-73.237,19.233-95,1c-19.356-16.217-12.336-58.23-33-73c-0.168-7.498-2.801-12.532-2-21
		c34.372-10.504,86.361-5.878,122,1c17.536,3.384,34.215,10.839,53,10c13.45-0.601,27.571-5.523,41-8
		C317.306,134.38,360.407,130.135,408,139z"/>
	<g fill="transparent" stroke="transparent" stroke-width="10">
		<circle cx="70" cy="25" r="100"/>
		<circle cx="70" cy="25" r="75"/>
		<circle cx="70" cy="25" r="50"/>
		<circle cx="70" cy="25" r="25"/>
	</g>

	<text fill="transparent" x="50" y="100" font-family="Verdana" font-size="50">Kom vegte dan!!1!</text>
	<!-- Background -->
	<rect width="100%" height="100%"/>
	<defs>
		<radialGradient id="a" cy="2.5375%" r="100%" fx="50%" fy="2.5375%">
			<stop stop-color="#FFF" offset="0%"/>
			<stop stop-color="#646464" offset="50.5501%"/>
			<stop offset="100%"/>
		</radialGradient>
	</defs>
	<!-- Big circle -->
	<circle cx="512.405" cy="512.405" r="512" fill="url(#a)" fill-rule="evenodd" transform="rotate(-30 512.405 512.405)">
		<animateTransform attributeName="transform" attributeType="XML" type="rotate" from="0 512 512" to="360 512 512" dur="10s" repeatCount="indefinite"/>
	</circle>
	<defs>
		<linearGradient id="b" x1="50%" x2="50%" y1="94.574%" y2="4.3036%">
			<stop offset="0%"/>
			<stop stop-color="#4D4D4D" offset="55.8992%"/>
			<stop stop-color="#7B7B7B" offset="68.2677%"/>
			<stop stop-color="#FFF" offset="100%"/>
		</linearGradient>
	</defs>
	<!-- SaVaGe Typography-->
	<path
		fill="url(#b)"
		fill-rule="evenodd"
		d="M646.781 442.1832c4.4206 94.1586 48.4344 100.6672 70.9218 100.6672 32.8663 0 56.3147-13.4512 69.192-50.7675 8.2647-24.299 8.649-50.768 8.649-57.711 0-68.124-31.5207-80.274-49.972-88.518l-17.1057-7.811c-19.604-9.112-28.061-14.319-28.061-32.1095 0-23.4313 16.722-24.299 21.334-24.299 8.265 0 20.95 1.3016 24.025 28.204l47.474-6.0746c-.192-3.905-1.153-19.526-4.613-33.845-5.766-22.997-15.568-36.8823-24.025-43.391-7.496-6.075-23.064-12.1494-42.668-12.1494-29.599 0-57.254 15.187-68.017 49.032-3.075 9.112-7.3034 24.733-7.3034 49.466 0 52.069 22.274 75.5 54.3716 89.819l33.2505 14.753c8.457 3.905 14.0308 11.7156 14.0308 26.0346 0 18.658-8.649 30.8075-23.6404 30.8075-8.8412 0-26.908-3.037-29.9832-35.1466 0 0-41.7073 3.0375-47.8577 3.0375zm307.0087 372.4506h-52.855l-7.3036-53.5044h-51.894l-7.303 53.5044h-53.432l58.621-328.4703h55.354l58.813 328.4703zm-70.3452-126.0842l-15.9526-111.196-15.569 111.196h31.521zm239.159-467.2714l-61.8885 328.4703h-45.167l-61.504-328.4703h50.933l33.0583 198.1988 33.635-198.1988h50.933zm172.634 593.3556h-52.855l-7.3037-53.5044h-51.894l-7.3036 53.5044h-53.4317l58.621-328.4703h55.3537l58.8133 328.4703zm-70.3453-126.0842l-15.9526-111.196-15.5682 111.196h31.5208zm237.648-138.801v-196.803h-80.916v74.4407h35.3647c-1.73 25.1238-17.106 57.2265-39.401 57.2265-12.109 0-24.987-10.2357-33.059-33.0332-8.457-24.1933-9.034-54.9-9.034-65.1357 0-49.318 11.339-76.302 17.49-87.003 10.763-18.61 23.064-19.076 27.292-19.076 16.7212 0 25.178 16.749 29.791 28.846l48.05-12.562c-4.036-24.193-12.1088-48.852-26.5238-66.066-19.6043-23.263-47.089-24.193-52.086-24.193-41.131 0-63.234 33.033-75.919 66.066-16.9138 44.664-18.067 95.377-18.067 117.244 0 123.758 41.5152 169.818 77.4567 169.818 27.1002 0 44.7826-18.611 57.468-46.061v36.29h42.092zm205.0415 265.1727v-74.4408h-96.2923v-52.574h87.451V613.931h-87.451v-53.9696h96.632V486.451h-145.2586v328.4703h144.919z"
		transform="rotate(90 1150 520)"/>
	<!-- Small circle -->
	<defs>
		<circle id="d" cx="1300" cy="490" r="276">
			<animateTransform attributeName="transform" attributeType="XML" type="rotate" from="0 1300 490" to="360 1300 490" dur="10s" repeatCount="indefinite"/>
		</circle>
		<filter id="c" width="128.9%" height="128.9%" x="-14.5%" y="-7.2%" filterUnits="objectBoundingBox">
			<feOffset dy="40" in="SourceAlpha" result="shadowOffsetOuter1"/>
			<feGaussianBlur stdDeviation="20" in="shadowOffsetOuter1" result="shadowBlurOuter1"/>
			<feColorMatrix values="0 0 0 0 0 0 0 0 0 0 0 0 0 0 0 0 0 0 0.3 0" in="shadowBlurOuter1"/>
		</filter>
	</defs>
	<!-- Text with shady background -->
	<g fill="none" fill-rule="evenodd" transform="rotate(-30 877.496 1342.79)">
		<use fill="#000" filter="url(#c)" xlink:href="#d"/>
		<use fill="url(#a)" xlink:href="#d"/>
	</g>
	<defs>
		<linearGradient id="e" x1="50%" x2="50%" y1="0%" y2="100%">
			<stop offset="0%"/>
			<stop stop-color="#FFF" offset="100%"/>
		</linearGradient>
	</defs>
	<g fill="none" fill-rule="evenodd">
		<path fill="url(#b)" d="M0 0h636v210H0z" transform="translate(50 760)"/>
		<path
			fill="url(#e)"
			d="M0 141.4403v13.251C0 203.6627 9.918 210 21.388 210 36.0494 210 42 190.9877 42 153.251c0-30.535-3.3634-42.0576-9.659-57.037l-8.452-20.4527c-3.622-8.642-6.3818-14.1152-6.3818-23.3333 0-3.745.4312-13.251 3.881-13.251 2.7596 0 3.967 5.7613 3.967 14.9794v13.539h15.955V51.852C41.31 8.93 30.0985 0 21.5605 0 9.7455 0 1.2075 12.0988 1.2075 56.749c0 19.3004.431 31.111 7.848 48.9712L19.663 131.358c4.0534 9.7943 5.2608 12.675 5.2608 23.0453 0 11.2346-1.035 16.996-3.967 16.996-3.2773 0-4.226-7.2018-4.226-16.42v-13.539H0zM105 0H88.2495l-6.462 160.9207L75.5805 0H59l11.3087 210h23.0425L105 0zm63 206.8313V100.535h-22.9545v36.0082h5.5565v23.0453c0 11.2345-1.6396 15.5555-5.3743 15.5555-4.8277 0-4.9188-10.6584-4.9188-16.4197V54.7325c0-6.9136.364-14.1152 4.918-14.1152 4.919 0 5.374 6.6255 5.374 14.6913V73.745H168V53.292C168 10.6584 157.798 0 145.2277 0 132.0197 0 122 11.5226 122 58.1893v96.502C122 195.885 127.6475 210 137.5762 210c6.4674 0 10.0198-7.4897 13.0258-25.3498v22.181H168zM261 210v-40.4533h-16.4715V123.442h15.2383V83.286h-15.2383V40.7508H261V0h-34v210h34zm66 0l-10.41-109.7592L327 0h-17.528l-5.3385 71.983L298.884 0H281l10.855 100.2408L281 210h17.528l5.6055-72.578L309.472 210H327zm58 0h-16.1246l-1.8007-47.2946h-9.904L355.2065 210H339L352.4235 0h19.4804L385 210zm-16-88l-4.447-84L360 122h9zm97 88V0h-21.668l-7.658 138.612L428.8422 0H407v210h14.4454V68.711L431.0177 210h11.0516l9.4853-143.966V210H466zM490 0h26.143C527.8856 0 532 16.0623 532 57.7054v18.7394c0 46.6997-5.8286 57.7053-17.4857 57.7053h-7.543V210H490V0zm17 38v50h4.5c3.87 0 4.5-4.696 4.5-15.746V52.0885C516 41.8675 514.83 38 511.5 38H507zm76 172v-39.8584h-16.3737V0H549v210h34zm54 0v-40.4533h-16.4715V123.442h15.2383V83.286h-15.2383V40.7508H637V0h-34v210h34z"
			transform="translate(50 760)"/>
	</g>
</svg>
