<svg xmlns="http://www.w3.org/2000/svg" viewbox="0 0 200 100" width="1150" height="1900" >
  <!--Update the title with your username-->
  <title>@Dopeboy404</title>
<g stroke="black"  stroke-width="2">
<circle cx="300" cy="340" r="200" stroke="black" stroke-width="3" fill="#DA9342" />
<circle cx="400" cy="340" r="50" stroke="black" stroke-width="3" fill="white" />
<circle cx="200" cy="340" r="50" stroke="black" stroke-width="3" fill="white" />
<circle cx="200" cy="340" r="30" stroke="black" stroke-width="3" fill="black" />
 <circle cx="400" cy="340" r="30" stroke="black" stroke-width="3" fill="black" />

 <rect x="700" y="500" width="200" height="100" opacity="0.25"/>
 
 <line x1="400" y1="400" x2="600" y2="300" stroke="black" stroke-width="3" opacity="0.5" />
 <line x1="400" y1="410" x2="600" y2="400" stroke="black" stroke-width="3" opacity="0.5" />
 <line x1="400" y1="420" x2="600" y2="500" stroke="black" stroke-width="3" opacity="0.5" />
 
 <line x1="200" y1="400" x2="0" y2="300" stroke="black" stroke-width="3" opacity="0.5" />
 <line x1="200" y1="410" x2="0" y2="400" stroke="black" stroke-width="3" opacity="0.5" />
 <line x1="200" y1="420" x2="0" y2="500" stroke="black" stroke-width="3" opacity="0.5" />
 
 <polygon points="400,10 300,190 450,210" fill="#DA9342"/>
 <polygon points="200,10 150,210 300,190" fill="#DA9342"/>
 
 <path d="M320 400 L280 400 L300 420 Z" />
 <path d="M420 450 L180 450 L300 470 Z" fill="#F37C7C"/>
 
 <text x="725" y="550" fill="red" font-family="Arial" font-size="50">wazzaa</text>
	</g>
  <!--Add stuff here-->

  <!-- NOTHING TO SEE HERE... MOVE ALONG!!! -->
 
</svg>
