<svg xmlns="http://www.w3.org/2000/svg" viewBox="0, 0, 500, 500">
  <!--Update the title with your username-->
  <title>@MauSNL</title>
<circle cx="553" cy="153" r="153" fill="LightGreen"/>
<circle cx="53" cy="53" r="53" fill="skyblue"/>
<text x="80" y="50" font-family="Verdana" font-size="35">
    Star Destroyer
  </text>
<rect x="70" y="70" width="20" height="20"/>
<circle cx="23" cy="23" r="23" fill="orange" opacity=".80"/>
<line x1="400" y1="330" x2="530" y2="200" stroke-width="5" stroke="black" fill="red"/>
<line x1="200" y1="330" x2="130" y2="200" stroke-width="5" stroke="black" fill="red"/>
<g stroke="green" fill="white" stroke-width="5">
<polygon points="89 233,619 201,643 181,236 148,232 121,261 121,265 99,142 102,134 123,198 122,198 149,132 168" fill="gray"/>
<polygon points="141 224,77 282,98 239,47 253,89 216,45 221,77 195,38 183,80 170,52 104,129 163" fill="goldenrod" opacity=".75"/>
</g>
<path d="" fill= "blue"/>
<viewBox width="2000" height="2000"/>
</svg>
