<svg xmlns="http://www.w3.org/2000/svg">
  <!--Update the title with your username-->
  <title>@sophiemei</title>

<svg viewBox="0 0 50 1200">
  <g stroke="white" fill="white" stroke-width="10">
    <circle cx="0" cy="120" r="50" fill="#6369D1"></circle>
    <circle cx="120" cy="120" r="100" fill="#6369D1"></circle>
    <circle cx="240" cy="120" r="100" fill="#6369D1"></circle>
    <circle cx="360" cy="120" r="50" fill="#60E1E0"></circle>
    <circle cx="360" cy="240" r="100" fill="#60E1E0"></circle>
    <circle cx="360" cy="360" r="60" fill="#60E1E0"></circle>
    <circle cx="480" cy="360" r="80" fill="#6369D1"></circle>
    <circle cx="600" cy="360" r="60" fill="#6369D1"></circle>
    <circle cx="720" cy="360" r="100" fill="#6369D1"></circle>
  </g>
</svg>

<svg>
  <rect x="190" y="190" width="200" height="200" opacity="100"/>
  <rect x="400" y="250" width="150" height="150" opacity="100"/>
  <rect x="300" y="400" width="100" height="100" opacity="100"/>
  <rect x="410" y="410" width="180" height="180" opacity="100"/>
  <rect x="600" y="400" width="140" height="140" opacity="100"/>
</svg>

<svg>
  <line x1="400" y1="100" x2="100" y2="20" stroke-width="20" stroke="black" opacity="0"/>
</svg>

<svg>
<polygon points="60,20 100,40 100,80 60,100 20,80 20,40" fill="#483c46" opacity="0"/>
</svg>

<svg>
<path d="M 100 100 L 300 100 L 200 300 z" fill="#6369D1" />
</svg>

<svg viewBox="50 0 1800 1000">
<path d="M 200 200 L 400 200 L 300 400 z" fill="#60E1E0" />
</svg>

<svg>
  <text x="135" y="800" font-family="Helvetica" font-size="10em" font-weight="bold">
  undefined</text>
</svg>

  <!-- NOTHING TO SEE HERE... MOVE ALONG!!! -->

</svg>
